<svg width="278" height="277" viewBox="0 0 278 277" fill="none" xmlns="http://www.w3.org/2000/svg">
<path d="M138.313 0.00204468C139.005 0.00136994 139.697 0.00069519 140.41 0C151.025 0.0164389 161.058 0.536383 171.375 3.25204C172.029 3.42365 172.683 3.59526 173.357 3.77206C195.192 9.65963 214.779 19.8669 231.375 35.252C231.925 35.7575 232.474 36.263 233.04 36.7838C254.614 56.8555 267.852 82.683 274.375 111.252C274.624 112.304 274.873 113.356 275.129 114.44C281.585 147.664 273.339 185.39 254.732 213.478C251.211 218.629 247.425 223.51 243.375 228.252C242.701 229.06 242.027 229.869 241.332 230.701C219.649 255.861 187.41 272.766 154.314 276.037C114.504 278.954 77.7452 269.719 47.0043 243.408C20.6034 220.139 3.56664 187.393 0.375426 152.252C0.0799822 147.185 -0.00695157 142.139 0.000426265 137.065C0.00130243 136.394 0.00217858 135.723 0.00308129 135.032C0.159834 98.4076 15.8044 65.1108 41.3754 39.252C67.5369 13.3952 101.757 0.0340514 138.313 0.00204468Z" fill="#29ADA5"/>
<path d="M84.4683 42.9163C85.8834 42.8823 85.8834 42.8823 87.3271 42.8477C96.0631 42.65 104.801 42.5349 113.538 42.4445C119.404 42.3828 125.267 42.2944 131.132 42.1409C136.808 41.9929 142.481 41.915 148.159 41.8847C150.314 41.8615 152.468 41.8142 154.622 41.7412C173.217 41.14 173.217 41.14 180.732 48.1789C182.989 50.5773 185.078 53.0614 187.094 55.6637C188.72 57.6793 190.555 59.312 192.563 60.9395C195.971 63.8293 199.149 66.9125 202.313 70.0645C202.799 70.5455 203.284 71.0266 203.784 71.5222C207.951 75.7064 208.489 77.6334 208.489 83.5772C208.484 84.4418 208.478 85.3064 208.473 86.1973C208.471 87.5248 208.471 87.5248 208.469 88.8791C208.463 91.7118 208.451 94.5443 208.438 97.377C208.433 99.2949 208.428 101.213 208.424 103.131C208.413 107.838 208.396 112.545 208.376 117.252C202.108 119.9 195.854 122.487 189.438 124.752C183.862 126.869 180.118 128.768 177.375 134.252C176.998 139.256 177.263 142.251 180.375 146.252C182.445 148.035 182.445 148.035 184.375 149.252C182.903 154.307 179.892 157.047 176.188 160.564C175.003 161.717 173.819 162.872 172.637 164.029C172.071 164.583 171.504 165.138 170.92 165.708C168.452 168.175 166.198 170.805 163.942 173.463C161.243 176.546 158.311 179.396 155.375 182.252C151.572 180.924 148.421 179.087 145.059 176.925C136.41 171.222 136.41 171.222 126.375 170.252C118.98 173.168 114.281 177.838 108.813 183.502C108.002 184.323 107.19 185.144 106.354 185.99C102.114 190.309 98.0355 194.725 94.0798 199.305C91.0717 202.741 87.9319 206.039 84.7505 209.314C83.7876 210.346 83.7876 210.346 82.8052 211.398C78.1304 216.183 78.1304 216.183 74.6646 216.498C71.6406 214.852 70.2833 213.12 68.3755 210.252C67.8693 207.136 67.8693 207.136 67.8608 203.572C67.8539 202.914 67.8469 202.256 67.8398 201.578C67.8215 199.38 67.8318 197.183 67.8421 194.984C67.835 193.406 67.8262 191.827 67.8159 190.248C67.7934 185.965 67.7964 181.682 67.8053 177.399C67.8104 173.823 67.8031 170.247 67.7958 166.671C67.7788 158.235 67.7824 149.799 67.7991 141.363C67.816 132.66 67.8002 123.957 67.7679 115.254C67.7412 107.78 67.7339 100.307 67.7424 92.8334C67.7473 88.3702 67.7451 83.9074 67.7246 79.4443C67.7062 75.2482 67.7122 71.0528 67.7368 66.8567C67.7418 65.3172 67.7383 63.7776 67.7256 62.2381C67.7097 60.1352 67.7246 58.0346 67.7473 55.9318C67.7479 54.7556 67.7485 53.5794 67.7491 52.3676C68.5612 48.3284 70.2512 46.8437 73.3755 44.252C76.7919 42.5438 80.7047 42.9935 84.4683 42.9163Z" fill="#FCFBFA"/>
<path d="M241.376 116.252C245.548 124.597 240.38 142.712 239.274 151.791C238.933 154.604 238.606 157.419 238.28 160.234C238.064 162.028 237.847 163.822 237.63 165.615C237.534 166.454 237.438 167.294 237.339 168.159C236.604 174.023 236.604 174.023 234.376 176.252C229.133 175.92 226.42 173.003 222.657 169.65C220.453 168.011 220.453 168.011 217.786 168.338C215.066 169.369 214.098 170.236 212.313 172.502C209.16 176.335 205.883 179.997 202.501 183.627C198.177 188.29 193.897 192.989 189.653 197.724C186.618 201.092 183.551 204.431 180.481 207.767C176.655 211.93 172.893 216.148 169.153 220.388C166.7 222.96 165.742 223.22 162.142 223.529C157.818 223.211 155.745 222.135 152.11 219.822C151.55 219.472 150.99 219.121 150.413 218.76C148.641 217.647 146.883 216.512 145.126 215.377C143.931 214.621 142.736 213.867 141.54 213.115C137.455 210.538 133.394 207.931 129.376 205.252C124.934 205.787 121.87 208.657 118.438 211.314C117.416 212.093 117.416 212.093 116.373 212.888C114.867 214.036 113.364 215.187 111.863 216.341C108.215 219.144 104.554 221.93 100.895 224.718C99.0272 226.142 97.1608 227.567 95.2958 228.994C94.4391 229.649 93.5825 230.304 92.6998 230.978C91.5565 231.853 91.5565 231.853 90.39 232.746C86.8293 235.407 84.8763 236.829 80.3756 236.252C78.3756 233.252 78.3756 233.252 78.4694 230.892C79.6471 227.461 81.377 225.636 83.8756 223.002C84.349 222.499 84.8224 221.996 85.3102 221.477C90.5114 216.001 95.8867 210.686 101.272 205.391C105.867 200.854 110.167 196.147 114.376 191.252C116.155 189.213 117.964 187.23 119.813 185.252C120.678 184.303 121.543 183.354 122.434 182.377C125.509 180.156 127.449 179.484 131.254 179.737C135.376 180.737 138.557 183.22 141.938 185.689C148.952 190.996 148.952 190.996 157.376 192.252C160.448 190.307 162.864 187.864 165.376 185.252C166.016 184.603 166.656 183.954 167.315 183.286C169.281 181.259 171.207 179.199 173.126 177.127C173.813 176.39 174.5 175.654 175.209 174.896C180.017 169.738 184.807 164.562 189.57 159.363C191.569 157.183 193.544 155.103 195.766 153.146C197.584 151.411 197.584 151.411 197.415 149.248C195.582 145.727 192.301 143.74 189.212 141.349C187.376 139.252 187.376 139.252 187.452 136.77C188.376 134.252 188.376 134.252 190.47 132.909C191.411 132.565 192.352 132.22 193.321 131.865C194.953 131.247 194.953 131.247 196.619 130.617C197.859 130.167 199.098 129.716 200.376 129.252C201.767 128.718 203.157 128.18 204.547 127.64C208.323 126.174 212.111 124.741 215.905 123.32C217.481 122.728 219.056 122.132 220.629 121.531C222.934 120.651 225.244 119.784 227.555 118.92C228.252 118.651 228.949 118.382 229.667 118.106C233.715 116.612 237.065 115.966 241.376 116.252Z" fill="#FAF9F8"/>
<path d="M103.829 105.88C104.585 105.876 105.341 105.872 106.121 105.869C108.623 105.86 111.124 105.874 113.625 105.889C115.363 105.889 117.1 105.889 118.837 105.887C122.479 105.887 126.121 105.898 129.762 105.916C134.433 105.938 139.104 105.939 143.775 105.932C147.362 105.929 150.95 105.936 154.537 105.945C156.26 105.949 157.982 105.95 159.705 105.949C162.111 105.948 164.516 105.961 166.922 105.977C167.993 105.974 167.993 105.974 169.086 105.97C172.74 106.009 174.246 106.166 177.375 108.252C177.759 111.258 177.977 113.309 176.311 115.919C173.391 117.93 170.452 117.67 167.03 117.64C165.912 117.648 165.912 117.648 164.772 117.656C162.308 117.669 159.844 117.661 157.379 117.65C155.667 117.652 153.954 117.655 152.242 117.659C148.652 117.663 145.061 117.657 141.471 117.643C136.87 117.626 132.269 117.636 127.667 117.654C124.13 117.665 120.593 117.661 117.056 117.653C115.36 117.651 113.663 117.654 111.967 117.661C109.594 117.668 107.223 117.657 104.85 117.64C103.799 117.649 103.799 117.649 102.726 117.659C99.6725 117.619 97.6217 117.39 94.9357 115.884C93.3755 114.252 93.3755 114.252 92.938 111.752C94.0216 105.56 98.4231 105.822 103.829 105.88Z" fill="#27AAA3"/>
<path d="M100.873 141.091C102.635 141.076 102.635 141.076 104.433 141.062C105.712 141.057 106.991 141.053 108.309 141.049C109.612 141.043 110.916 141.037 112.259 141.031C115.022 141.021 117.785 141.015 120.548 141.012C124.094 141.006 127.639 140.982 131.185 140.954C134.56 140.93 137.934 140.928 141.309 140.924C143.225 140.905 143.225 140.905 145.179 140.886C146.946 140.891 146.946 140.891 148.748 140.895C149.789 140.892 150.829 140.888 151.902 140.884C152.718 141.006 153.534 141.127 154.375 141.252C156.375 144.252 156.375 144.252 156.125 146.814C155.375 149.252 155.375 149.252 153.375 151.252C150.991 151.512 150.991 151.512 147.963 151.526C146.832 151.536 145.701 151.545 144.535 151.555C143.308 151.554 142.081 151.553 140.817 151.553C139.561 151.557 138.306 151.561 137.013 151.566C134.354 151.571 131.695 151.573 129.036 151.567C125.628 151.562 122.221 151.579 118.814 151.602C115.565 151.62 112.316 151.616 109.067 151.615C107.229 151.629 107.229 151.629 105.354 151.643C104.22 151.637 103.085 151.631 101.917 151.624C100.417 151.625 100.417 151.625 98.8866 151.626C96.3753 151.252 96.3753 151.252 94.5134 149.924C93.3753 148.252 93.3753 148.252 93.6253 145.127C94.8627 140.384 96.2325 141.121 100.873 141.091Z" fill="#24A4A1"/>
<path d="M101.436 71.9774C103.018 71.9631 103.018 71.9631 104.632 71.9485C106.346 71.9499 106.346 71.9499 108.094 71.9512C109.848 71.9448 109.848 71.9448 111.636 71.9383C114.111 71.9325 116.586 71.932 119.061 71.9364C122.86 71.9395 126.658 71.9161 130.458 71.8907C132.857 71.8884 135.257 71.8877 137.657 71.8887C138.8 71.8795 139.942 71.8703 141.12 71.8608C142.701 71.8702 142.701 71.8702 144.315 71.8797C145.246 71.8791 146.177 71.8785 147.136 71.8778C147.875 72.0013 148.614 72.1248 149.376 72.252C151.376 75.252 151.376 75.252 151.126 78.377C150.878 79.3258 150.631 80.2745 150.376 81.252C147.894 82.4927 146.199 82.399 143.423 82.429C142.391 82.4419 141.36 82.4547 140.298 82.4679C139.18 82.4753 138.062 82.4827 136.911 82.4903C135.766 82.4984 134.622 82.5065 133.443 82.5148C131.02 82.5286 128.596 82.5393 126.173 82.5472C122.457 82.5644 118.742 82.6083 115.026 82.6524C112.675 82.6625 110.324 82.6711 107.973 82.6778C106.858 82.6953 105.742 82.7128 104.592 82.7309C103.558 82.7279 102.524 82.725 101.458 82.722C100.547 82.7279 99.6357 82.7337 98.697 82.7398C96.3756 82.252 96.3756 82.252 94.5462 80.3555C93.3756 78.252 93.3756 78.252 93.5631 76.127C95.3395 72.0276 97.31 71.9978 101.436 71.9774Z" fill="#29B2A3"/>
</svg>
